<?xml version="1.0" encoding="UTF-8"?>
<svg id="Layer_2" data-name="Layer 2" xmlns="http://www.w3.org/2000/svg" viewBox="0 0 1327.01 339.89">
  <g id="Layer_1-2" data-name="Layer 1">
    <g>
      <path d="m215.26,171.84l-54.63,36.65c-8,.04-18.01-1.52-31.61-2.66,1.4,44.79,6.69,63.17,25.89,63.08,4-.02,11.2-.85,11.59-1.25l6.56,35.17c-1.6.41-57.97,7.06-145.43,37.06l-10.17-36.75c6.37-5.63,12.74-13.66,14.69-24.07,2.35-11.61,4.11-64.82,3.92-105.62-.3-65.6-5.52-70.77-31.11-68.26L0,70.42l90.68-25.61c8.8-.04,36.41,2.63,60.41,2.53,20-.09,38.39-2.17,65.16-9.1l12.54,30.34-55.02,40.65c-3.2.01-19.61-1.91-28.41-1.87-10.4.05-13.59,2.86-14.76,9.67-1.17,6.4-1.5,21.21-1.83,36.81,20.41,1.51,38.42,3.43,74.35-9.94l12.13,27.94Z"/>
      <path d="m470.89,266.28l-95.28,70.43c-20.42-5.11-31.69-20.66-34.58-40.64l-59.02,38.67c-33.64-9.85-51.77-37.37-51.91-69.36-.14-30,15.79-46.07,56.53-58.66,29.16-8.93,49.95-10.23,49.91-20.63-.01-2.8-1.63-6.79-8.85-10.36-10.02-4.75-25.63-7.08-36.83-7.03-15.6.07-25.58,4.52-47.14,13.01l-14.15-32.34,82.58-49.17c49.6-.22,72.49,20.87,106.59,42.32.52,27.2-4.54,56.42-4.44,80.02.1,21.6,4.54,29.98,14.54,29.93,10-.05,29.96-9.34,29.96-9.34l12.11,23.14Zm-154.49-20.9c.05,11.2,4.49,19.18,10.49,19.15,2.8-.01,6.39-2.03,8.37-6.04,2.38-4.41,2.35-10.81,1.04-35.2-12.38,4.06-19.96,8.09-19.9,22.09Z"/>
      <path d="m725.83,271.52l-90.3,62.43c-.78.01-22.77-6.09-35.93-24.71l-1.01-45.59c-22.11,42.3-45.6,70.23-65.93,70.5-17.21.23-28.04-19.62-46.65-36.17-.17-12.4,3.22-50.85,2.81-81.24-.53-38.8-6.89-46.71-23.69-44.88l-6.27-29.92,86.67-41.58c11.36,1.05,16.99,12.17,30.43,22.79-1.3,19.62-6.39,76.49-6.16,93.29.21,15.2,4.99,21.53,8.51,21.49,7.04-.1,13.75-24.19,13.4-50.19-.21-15.2-3-47.96-3.1-55.16l75.78-36.63s15.39,9.79,21.88,26.9c-3.79,9.25-7.82,29.31-7.04,86.5.47,34.4,2.18,45.17,12.74,45.03,7.04-.1,20.66-5.08,20.66-5.08l13.21,22.22Z"/>
      <path d="m904.19,244.52l-87.67,73.2c-42.82-4.61-91.03-50.39-91.32-115.19-.27-58.8,39.28-70.98,93.88-115.63,47.6-.22,72.87,15.67,72.87,15.67-1.81,41.21-18.48,69.68-18.48,69.68-8,.04-41.66-14.21-60.06-14.13-6.8.03-9.19,2.04-9.16,9.64.11,23.6,23.91,67.49,51.91,67.36,10.4-.05,22.77-6.1,35.14-12.56l12.9,21.94Z"/>
      <path d="m1114.66,260.56l-104.48,69.27c-55.62-5.35-89.5-65.99-89.73-117.59-.27-60.4,46.45-76.21,109.08-115.29,43.2-.2,80.62,47.63,78.79,87.24l-92.2,44.02c8.86,13.96,20.51,24.31,32.91,24.25,16-.07,53.92-17.44,53.92-17.44l11.72,25.55Zm-111.87-59.49c13.97-6.46,21.95-11.7,21.92-18.1-.03-7.6-12.09-19.94-19.69-19.91-4.4.02-7.18,3.63-7.14,12.43.03,6.8,1.67,15.99,4.92,25.58Z"/>
      <path d="m1257.79,157.2l.02,3.78c.24,53.85,1.09,64.71,9.93,72.22,3.21,2.82,8.02,5.16,12.42,5.14,10.8-.05,33.53-14.8,33.53-14.8l13.32,26.86-120.02,82.73s-24.44-8.39-40.57-38.55c-.09-18.89,1.68-70.39,1.58-93.06-.1-22.67-2.15-34-7.39-41.53-4.03-5.65-10.84-8.45-32.84-8.35l.62-40.62,36.01,1.25-.13-29.76s51.4-44.63,74.03-82.52l26.85,11.21s-5.45,32.14-7.15,100.17c20-.09,35.19-2.05,55.96-9.7l7.35,33.5-45.1,21.93-18.4.08Z"/>
    </g>
  </g>
</svg>